# xmcd
#
# Track frame offsets: 
#        150
#        17352
#        50375
#        73340
#
# Disc length: 1144 seconds
#
# Revision: 0
# Processed by: cddbd v1.5.2PL0 Copyright (c) Steve Scherf et al.
# Submitted via: ExactAudioCopy v0.99pb4
#
DISCID=2d047604
DTITLE=Vitro - Mentally Dull
DYEAR=1997
DGENRE=Dance
TTITLE0=Mentally Dull
TTITLE1=Mentally Dull "The Imperion Mix"
TTITLE2=Mentally Dull "The Vitro Anorak Mix"
TTITLE3=Won't Be Long
EXTD=
EXTT0=
EXTT1=
EXTT2=
EXTT3=
PLAYORDER=
